<svg width="104" height="30" viewBox="0 0 104 30" fill="none" xmlns="http://www.w3.org/2000/svg">
<path d="M21.2565 3.08903C21.6969 2.71067 21.9202 2.40674 21.9202 2.18344V2.06559C21.9202 1.74306 21.6907 1.58179 21.2255 1.58179H17.1317C16.6727 1.58179 16.437 1.74306 16.437 2.06559V2.18344C16.437 2.36332 16.5797 2.56181 16.8712 2.7851C17.1628 3.0084 17.4171 3.2503 17.6404 3.52322C17.8636 3.79614 17.9009 4.11247 17.7582 4.47222L12.4921 17.932L6.92216 4.50944C6.80431 4.23032 6.79811 3.96981 6.90976 3.72791C7.02141 3.486 7.16407 3.29372 7.34395 3.15726C7.52382 3.0146 7.7037 2.85953 7.88358 2.69206C8.06345 2.51839 8.15649 2.35712 8.15649 2.19585V2.078C8.15649 1.75546 7.92699 1.59419 7.46179 1.59419H0.719508C0.235701 1.59419 0 1.75546 0 2.078V2.19585C0 2.43775 0.217093 2.76029 0.645076 3.15726C1.07926 3.56043 1.4018 4.01323 1.6251 4.50944L9.60171 21.79C9.96146 22.5716 10.5073 22.9623 11.2268 22.9623C12.0704 22.9623 12.672 22.5406 13.0318 21.697L20.2641 4.47843C20.4874 3.9388 20.8161 3.4736 21.2565 3.09524V3.08903Z" fill="#1B2629"/>
<path d="M32.6075 18.1429C32.347 18.0622 32.1237 18.1429 31.9438 18.3848C31.6398 18.8872 31.1871 19.3028 30.573 19.6315C29.9589 19.9603 29.2704 20.1277 28.5137 20.1277C26.6901 20.1277 25.3628 19.2532 24.5378 17.5102L31.2243 14.4709C32.105 14.0677 32.5516 13.4103 32.5516 12.4861C32.5516 11.3634 32.0616 10.3709 31.0754 9.50258C30.0892 8.64041 28.6874 8.20622 26.8638 8.20622C24.8541 8.20622 23.1422 8.90092 21.7156 10.2965C20.289 11.6921 19.5757 13.4661 19.5757 15.6122C19.5757 17.901 20.258 19.7494 21.6226 21.1512C22.9871 22.5592 24.7363 23.2601 26.8638 23.2601C28.6316 23.2601 30.0644 22.7639 31.1684 21.7714C32.2725 20.779 32.8742 19.7618 32.9734 18.7135C32.992 18.4096 32.8742 18.2235 32.6137 18.1429H32.6075ZM23.7563 13.5343C23.7563 12.3682 23.9858 11.413 24.451 10.6625C24.91 9.91195 25.5364 9.53359 26.318 9.53359C27.0437 9.53359 27.6205 9.89955 28.0671 10.6315C28.5075 11.3634 28.7308 12.0705 28.7308 12.7528C28.7308 13.4351 28.4703 13.9065 27.9493 14.167L24.0664 16.127C23.8679 15.3827 23.7625 14.5205 23.7625 13.5405L23.7563 13.5343Z" fill="#1B2629"/>
<path d="M49.9126 8.93194L46.7492 8.39231C46.3708 8.31168 46.0545 8.34889 45.8188 8.49776C45.5769 8.64662 45.459 8.86371 45.459 9.14283V9.80652C44.4542 8.74586 43.133 8.21243 41.4831 8.21243C39.4983 8.21243 37.8174 8.91333 36.4404 10.3213C35.0634 11.7293 34.3811 13.5219 34.3811 15.7114C34.3811 17.901 35.0758 19.6563 36.4714 20.9775C37.867 22.3049 39.5169 22.9624 41.4211 22.9624C42.8663 22.9624 44.0697 22.5406 45.0311 21.697V22.4475C45.0311 24.2525 44.7705 25.5861 44.2495 26.4358C43.7285 27.2918 43.0338 27.7136 42.1716 27.7136C41.5514 27.7136 41.0179 27.5585 40.5776 27.2484C40.1372 26.9383 39.7836 26.5599 39.5231 26.1195C39.2626 25.6791 39.0145 25.2387 38.785 24.7921C38.5555 24.3517 38.2702 23.9734 37.9414 23.6632C37.6127 23.3531 37.2157 23.198 36.7505 23.198C36.1675 23.198 35.7209 23.3655 35.4107 23.6943C35.1006 24.023 34.9455 24.4138 34.9455 24.8542C34.9455 25.9582 35.6154 26.9196 36.949 27.7446C38.2826 28.5696 39.9945 28.9789 42.0848 28.9789C44.1751 28.9789 45.8932 28.309 47.2454 26.9631C48.5976 25.6171 49.2799 23.6881 49.2799 21.1822V12.1821C49.2799 11.6177 49.4908 11.1091 49.9126 10.6439C50.3343 10.1849 50.5452 9.89335 50.5452 9.7693V9.67626C50.5452 9.25448 50.3343 9.00637 49.9126 8.92574V8.93194ZM45.0373 18.4468C45.0373 19.4516 44.7768 20.2394 44.2557 20.81C43.7347 21.3807 43.1331 21.666 42.4508 21.666C41.6692 21.6474 40.9683 21.207 40.3605 20.3386C39.7464 19.4765 39.2998 18.4592 39.0207 17.2993C38.7416 16.1332 38.6175 15.0105 38.6609 13.9251C38.6982 12.5233 38.9897 11.4316 39.5355 10.6563C40.0751 9.88095 40.8071 9.49638 41.7312 9.49638C42.5934 9.49638 43.3625 9.90576 44.0324 10.7307C44.7023 11.5557 45.0435 12.455 45.0435 13.4413V18.4406L45.0373 18.4468Z" fill="#1B2629"/>
<path d="M67.5593 8.93194L64.3959 8.39231C64.0176 8.31168 63.7012 8.34889 63.4655 8.49776C63.2236 8.64662 63.1058 8.86371 63.1058 9.14283V9.80652C62.1009 8.74586 60.7798 8.21243 59.1299 8.21243C57.145 8.21243 55.4641 8.91333 54.0871 10.3213C52.7101 11.7293 52.0278 13.5219 52.0278 15.7114C52.0278 17.901 52.7225 19.6563 54.1181 20.9775C55.5137 22.3049 57.1636 22.9624 59.0678 22.9624C60.5131 22.9624 61.7164 22.5406 62.6778 21.697V22.4475C62.6778 24.2525 62.4173 25.5861 61.8963 26.4358C61.3752 27.2918 60.6805 27.7136 59.8184 27.7136C59.1981 27.7136 58.6647 27.5585 58.2243 27.2484C57.7839 26.9383 57.4303 26.5599 57.1698 26.1195C56.9093 25.6791 56.6612 25.2387 56.4317 24.7921C56.2022 24.3517 55.9169 23.9734 55.5882 23.6632C55.2594 23.3531 54.8624 23.198 54.3972 23.198C53.8142 23.198 53.3676 23.3655 53.0575 23.6943C52.7473 24.023 52.5923 24.4138 52.5923 24.8542C52.5923 25.9582 53.2622 26.9196 54.5957 27.7446C55.9293 28.5696 57.6412 28.9789 59.7315 28.9789C61.8218 28.9789 63.54 28.309 64.8921 26.9631C66.2443 25.6171 66.9266 23.6881 66.9266 21.1822V12.1821C66.9266 11.6177 67.1375 11.1091 67.5593 10.6439C67.9811 10.1849 68.192 9.89335 68.192 9.7693V9.67626C68.192 9.25448 67.9811 9.00637 67.5593 8.92574V8.93194ZM62.684 18.4468C62.684 19.4516 62.4235 20.2394 61.9025 20.81C61.3814 21.3807 60.7798 21.666 60.0975 21.666C59.316 21.6474 58.6151 21.207 58.0072 20.3386C57.3931 19.4765 56.9465 18.4592 56.6674 17.2993C56.3883 16.1332 56.2642 15.0105 56.3077 13.9251C56.3449 12.5233 56.6364 11.4316 57.1822 10.6563C57.7219 9.88095 58.4538 9.49638 59.378 9.49638C60.2402 9.49638 61.0093 9.90576 61.6792 10.7307C62.3491 11.5557 62.6902 12.455 62.6902 13.4413V18.4406L62.684 18.4468Z" fill="#1B2629"/>
<path d="M73.2473 6.37023C74.1281 6.37023 74.8352 6.12212 75.3686 5.63211C75.902 5.1421 76.1687 4.50323 76.1687 3.72169C76.1687 2.94016 75.902 2.3323 75.3686 1.84229C74.8352 1.35228 74.1281 1.10417 73.2473 1.10417C72.3665 1.10417 71.647 1.35228 71.095 1.84229C70.5429 2.3323 70.27 2.95877 70.27 3.72169C70.27 4.48462 70.5429 5.1421 71.095 5.63211C71.647 6.12212 72.3665 6.37023 73.2473 6.37023Z" fill="#1B2629"/>
<path d="M75.4738 20.0409V8.93193C75.4738 8.628 75.3622 8.41711 75.1451 8.28686C74.9218 8.1566 74.624 8.16901 74.2395 8.33028L70.4745 10.1973C70.0527 10.4206 69.8418 10.6315 69.8418 10.8299V10.923C69.8418 11.0843 70.0341 11.3882 70.4124 11.8286C70.7908 12.269 70.9831 12.7404 70.9831 13.2428V20.0471C70.9831 20.5309 70.7908 20.9775 70.4124 21.3993C70.0279 21.8211 69.8418 22.1312 69.8418 22.3297V22.4475C69.8418 22.7887 70.0651 22.9623 70.5055 22.9623H76.0445C76.5034 22.9623 76.7392 22.7949 76.7392 22.4475V22.3297C76.7392 22.1312 76.5283 21.8211 76.1065 21.3993C75.6847 20.9775 75.4738 20.5247 75.4738 20.0471V20.0409Z" fill="#1B2629"/>
<path d="M103.417 8.51015H99.7452C99.3234 8.51015 99.1125 8.68382 99.1125 9.02497V9.14282C99.1125 9.3227 99.28 9.53979 99.6273 9.7879C99.9685 10.0422 100.241 10.2965 100.44 10.557C100.638 10.8175 100.638 11.2889 100.44 11.9712L97.1897 19.7059L93.6666 11.5495C93.4867 10.985 93.4247 10.6066 93.4867 10.4082C93.5487 10.2097 93.6666 9.99258 93.8465 9.76309C94.0263 9.53359 94.1194 9.3289 94.1194 9.14282V9.02497C94.1194 8.68382 93.9271 8.51015 93.5487 8.51015H84.6355C84.4122 7.86507 84.2386 7.20759 84.1083 6.5253C83.978 5.84301 83.8974 5.16072 83.8664 4.47842C83.8354 3.79613 83.9408 3.23789 84.1827 2.80991C84.4246 2.37572 84.7968 2.16483 85.2992 2.16483C85.721 2.16483 86.0435 2.30129 86.2606 2.57421C86.4839 2.84712 86.6266 3.16966 86.6948 3.53562C86.763 3.90778 86.8499 4.27994 86.9491 4.6521C87.0483 5.02426 87.2716 5.34059 87.6128 5.6011C87.9539 5.86162 88.4253 5.99187 89.027 5.99187C89.5666 5.99187 89.9822 5.8306 90.2737 5.50806C90.5653 5.18553 90.7079 4.82577 90.7079 4.4226C90.7079 3.4798 90.2613 2.65484 89.3681 1.95394C88.475 1.25304 87.4081 0.89949 86.1614 0.89949C84.2758 0.89949 82.8367 1.43292 81.8567 2.49357C80.8767 3.55423 80.3805 4.93122 80.3805 6.61834V8.51635H78.2406C78.0607 8.51635 77.9118 8.57838 77.7878 8.69623C77.6699 8.81408 77.6079 8.95674 77.6079 9.11801V9.68865C77.6079 10.0732 77.8188 10.2593 78.2406 10.2593H80.3805V20.0409C80.3805 20.5247 80.182 20.9713 79.7788 21.3931C79.3757 21.8148 79.1772 22.125 79.1772 22.3235V22.4413C79.1772 22.7825 79.3881 22.9561 79.8099 22.9561H85.6776C86.0559 22.9561 86.2482 22.7887 86.2482 22.4413V22.3235C86.2482 22.125 86.1242 21.9203 85.8698 21.7218C85.6155 21.5233 85.3674 21.2814 85.1193 21.0023C84.865 20.7232 84.741 20.4006 84.741 20.0409V10.2593H87.9912C88.3881 10.6687 88.6921 11.078 88.8967 11.4936L94.8885 23.7749C93.7472 26.5847 92.7114 27.9927 91.7872 27.9927C91.446 27.9927 91.1669 27.8066 90.9622 27.4345C90.7575 27.0623 90.5963 26.6467 90.497 26.1877C90.3978 25.7287 90.1869 25.3069 89.8644 24.941C89.5418 24.5688 89.1014 24.3827 88.537 24.3827C87.9726 24.3827 87.5322 24.5502 87.2096 24.879C86.8871 25.2077 86.7258 25.6481 86.7258 26.1877C86.7258 27.0127 87.1414 27.7508 87.9725 28.4145C88.8037 29.0782 89.8644 29.4069 91.1483 29.4069C91.7314 29.4069 92.2896 29.2766 92.8354 29.0161C93.3813 28.7556 93.8279 28.4517 94.1876 28.1105C94.5474 27.7694 94.9133 27.3042 95.2855 26.7087C95.6576 26.1133 95.9306 25.6419 96.1104 25.2759C96.2903 24.9162 96.5136 24.4448 96.7741 23.8617L102.462 11.4874C102.66 11.0656 102.971 10.6315 103.38 10.1911C103.789 9.75068 104 9.39713 104 9.13662V8.98775C104 8.66522 103.802 8.50395 103.399 8.50395L103.417 8.51015Z" fill="#1B2629"/>
</svg>
